<svg width="22" height="21" viewBox="0 0 22 21" fill="none" class="icon_cart_new" xmlns="http://www.w3.org/2000/svg"><path d="M22.0003 8.86121C22.0003 8.79264 22.0003 8.72978 21.9946 8.66121C21.9889 8.6155 21.9832 8.5755 21.9717 8.52979C21.9603 8.46121 21.9374 8.39836 21.9203 8.3355C21.9089 8.31264 21.9089 8.28407 21.8974 8.26121L19.0403 1.40407C18.8232 0.878357 18.3032 0.529785 17.726 0.529785H4.86887C4.29172 0.529785 3.77172 0.878357 3.54887 1.40979L0.691724 8.26693C0.680296 8.28979 0.680296 8.31836 0.668867 8.34121C0.64601 8.40407 0.628867 8.46693 0.617439 8.5355C0.60601 8.58121 0.600296 8.62121 0.594581 8.66693C0.588867 8.72978 0.588867 8.79836 0.588867 8.86121C0.588867 8.90693 0.588867 8.95264 0.594581 8.99264C0.594581 9.00979 0.594581 9.02693 0.600296 9.04407L2.31458 19.3298C2.42887 20.0269 3.02315 20.5298 3.72601 20.5298H18.8689C19.566 20.5298 20.1603 20.0269 20.2803 19.3355L21.9946 9.04979C22.0003 9.03264 21.9946 9.0155 22.0003 8.99836C22.0003 8.95264 22.0003 8.90693 22.0003 8.86121ZM5.81744 3.38693H16.7717L18.4403 7.38693H4.15458L5.81744 3.38693ZM12.8803 10.2441L12.4689 17.6726H10.126L9.71458 10.2441H12.8803ZM3.69744 10.2441H6.85172L7.26315 17.6726H4.93172L3.69744 10.2441ZM17.6574 17.6726H15.3317L15.7432 10.2441H18.8974L17.6574 17.6726Z" fill="#252427"></path></svg>