<svg width="26" height="26" viewBox="0 0 26 26" fill="none" xmlns="http://www.w3.org/2000/svg">
                  <path d="M21.4984 4.87275C19.3403 2.73433 16.4799 1.55859 13.4419 1.55859H13.3906C10.3329 1.57043 7.46456 2.77378 5.31431 4.94377C3.16406 7.11375 1.98437 9.98996 2.00016 13.0477C2.01199 16.1054 3.21535 18.9737 5.38533 21.1239C7.54347 23.2624 10.4039 24.442 13.4419 24.442H13.4932C16.5509 24.4302 19.4192 23.2268 21.5694 21.0569C23.7197 18.8869 24.8994 16.0067 24.8875 12.953C24.8757 9.89527 23.6724 7.02695 21.5024 4.87669L21.4984 4.87275Z" stroke="#1A1A1A" stroke-width="2.2" stroke-miterlimit="10"></path>
                  <path d="M14.9618 23.8076V15.9823H16.7606C17.159 15.9823 17.497 15.6989 17.5573 15.3171L17.9598 12.7703C17.9718 12.7192 17.9759 12.6641 17.9759 12.609C17.9759 12.176 17.6177 11.8217 17.171 11.8217H14.9618V11.1958C14.9618 10.7314 15.0382 9.95592 15.5453 9.95592H17.1952C17.6378 9.95592 18 9.60166 18 9.16868V6.90927C18 6.51565 17.7022 6.18107 17.3038 6.1299C16.9738 6.0866 16.3219 6 15.1348 6C12.1408 6 10.4909 7.73588 10.4909 10.8888V11.8217H8.80483C8.36217 11.8217 8 12.176 8 12.609V15.1951C8 15.628 8.36217 15.9823 8.80483 15.9823H10.4909V23.8076C10.4909 23.8076 12.4507 24.2405 14.9658 23.8076H14.9618Z" fill="#1A1A1A"></path>
                  </svg>