<svg width="32" height="33" viewBox="0 0 32 33" fill="none" xmlns="http://www.w3.org/2000/svg">
<path d="M29.2066 14.3564L30.6855 12.8775C31.3134 12.247 31.6658 11.3934 31.6658 10.5036C31.6658 9.61371 31.3134 8.76008 30.6855 8.12957C30.2735 7.72559 29.7593 7.44156 29.198 7.30799L29.3882 7.11773C30.0188 6.48686 30.373 5.6314 30.373 4.73943C30.373 3.84746 30.0188 2.992 29.3882 2.36113C28.7462 1.7554 27.8968 1.41799 27.0141 1.41799C26.1315 1.41799 25.2823 1.7554 24.6403 2.36113L24.4671 2.53408C24.3134 1.97889 24.0149 1.47452 23.6023 1.07254C22.9603 0.466806 22.1111 0.129395 21.2284 0.129395C20.3458 0.129395 19.4964 0.466806 18.8544 1.07254L7.0581 12.9294V7.07447C7.08122 6.6189 7.01149 6.16341 6.85308 5.73565C6.69467 5.30788 6.45094 4.91679 6.13668 4.58617C5.82241 4.25555 5.4442 3.9923 5.02502 3.81241C4.60583 3.63252 4.15436 3.53975 3.6982 3.53975C3.24205 3.53975 2.79057 3.63252 2.37139 3.81241C1.95221 3.9923 1.574 4.25555 1.25973 4.58617C0.945464 4.91679 0.701741 5.30788 0.543329 5.73565C0.384916 6.16341 0.31519 6.6189 0.33831 7.07447V20.194C0.38148 23.1067 1.53897 25.8921 3.57279 27.9775C6.35071 30.6736 10.0799 32.1652 13.9508 32.1287C15.3973 32.1292 16.8296 31.8436 18.1654 31.2885C19.5012 30.7334 20.7141 29.9198 21.7343 28.8943L30.6595 19.9692C30.9725 19.6581 31.2207 19.2882 31.3902 18.8808C31.5597 18.4734 31.6472 18.0365 31.6472 17.5952C31.6472 17.1539 31.5597 16.717 31.3902 16.3096C31.2207 15.9022 30.9725 15.5323 30.6595 15.2212C30.2612 14.8082 29.7595 14.5096 29.2066 14.3564ZM29.4486 18.7238L20.5236 27.6489C19.6604 28.5145 18.6345 29.2008 17.505 29.6683C16.3754 30.1358 15.1646 30.3754 13.9422 30.3731C10.5202 30.4185 7.21913 29.1098 4.75771 26.7322C3.04446 24.9655 2.06996 22.6115 2.03335 20.1508V7.07447C2.01702 6.8504 2.04708 6.62538 2.12161 6.41344C2.19614 6.2015 2.31364 6.0072 2.46662 5.84267C2.61959 5.67814 2.80476 5.54691 3.01073 5.45718C3.21669 5.36744 3.43891 5.32112 3.66358 5.32112C3.88824 5.32112 4.11046 5.36744 4.31643 5.45718C4.52239 5.54691 4.70777 5.67814 4.86075 5.84267C5.01372 6.0072 5.13102 6.2015 5.20554 6.41344C5.28007 6.62538 5.31013 6.8504 5.2938 7.07447V15.005C5.29596 15.1207 5.31948 15.2351 5.36305 15.3423C5.45106 15.5526 5.61849 15.7197 5.82904 15.8071C6.03959 15.8946 6.27626 15.8954 6.48738 15.8093C6.59249 15.7623 6.68881 15.698 6.77263 15.619L20.0999 2.29193C20.4096 1.99234 20.8235 1.82486 21.2544 1.82486C21.6853 1.82486 22.0992 1.99234 22.4089 2.29193C22.7121 2.598 22.8821 3.01139 22.8821 3.44218C22.8821 3.87296 22.7121 4.28632 22.4089 4.5924L13.2502 13.751C13.0892 13.913 12.9988 14.1322 12.9988 14.3607C12.9988 14.5892 13.0892 14.8084 13.2502 14.9704C13.4123 15.1315 13.6315 15.2219 13.86 15.2219C14.0885 15.2219 14.3078 15.1315 14.4698 14.9704L23.6283 5.81182L25.8683 3.58055C26.1785 3.2855 26.5904 3.12095 27.0186 3.12095C27.4467 3.12095 27.8584 3.2855 28.1686 3.58055C28.3198 3.73155 28.4399 3.91086 28.5217 4.10822C28.6035 4.30559 28.6454 4.51713 28.6454 4.73077C28.6454 4.94442 28.6035 5.15598 28.5217 5.35335C28.4399 5.55071 28.3198 5.73002 28.1686 5.88102L16.7702 17.2795C16.6512 17.4009 16.5706 17.5547 16.5386 17.7217C16.5065 17.8886 16.5243 18.0613 16.5899 18.2182C16.6554 18.3751 16.7657 18.5092 16.907 18.6037C17.0483 18.6982 17.2142 18.749 17.3842 18.7497C17.498 18.7504 17.6109 18.7286 17.7163 18.6856C17.8217 18.6425 17.9174 18.5791 17.9982 18.499L27.1569 9.34036C27.4671 9.0453 27.879 8.88076 28.3072 8.88076C28.7353 8.88076 29.147 9.0453 29.4572 9.34036C29.6097 9.49151 29.7309 9.67134 29.8134 9.8695C29.896 10.0677 29.9384 10.2802 29.9384 10.4949C29.9384 10.7096 29.896 10.9221 29.8134 11.1203C29.7309 11.3185 29.6097 11.4983 29.4572 11.6495L25.9202 15.1866L20.2988 20.8081C20.1377 20.9701 20.0473 21.1893 20.0473 21.4178C20.0473 21.6463 20.1377 21.8654 20.2988 22.0275C20.3792 22.1085 20.4748 22.1729 20.5802 22.2168C20.6856 22.2607 20.7986 22.2833 20.9128 22.2833C21.0269 22.2833 21.1399 22.2607 21.2453 22.2168C21.3507 22.1729 21.4464 22.1085 21.5268 22.0275L27.1395 16.406C27.4503 16.1228 27.8581 15.9703 28.2784 15.98C28.6987 15.9897 29.0992 16.161 29.3964 16.4583C29.6937 16.7556 29.8649 17.156 29.8747 17.5763C29.8844 17.9966 29.7318 18.4045 29.4486 18.7152V18.7238Z" fill="#33578D"></path>
</svg>